<svg xmlns="http://www.w3.org/2000/svg" xmlns:xlink="http://www.w3.org/1999/xlink" viewBox="0 0 100 125" version="1.1" x="0px" y="0px"><title>Delete 1.4</title><desc>Created with Sketch.</desc><g stroke="none" stroke-width="1" fill="none" fill-rule="evenodd"><g fill-rule="nonzero" fill="#000000"><path d="M69.5021673,33.8959236 L67.6683908,77.9065599 C67.632523,78.7673863 66.8667215,79.5 65.9999745,79.5 L34.0000255,79.5 C33.1336268,79.5 32.3673911,78.7653262 32.3316092,77.9065599 L30.4978327,33.8959236 C30.4403529,32.5164087 29.2754385,31.4446875 27.8959236,31.5021673 C26.5164087,31.5596471 25.4446875,32.7245615 25.5021673,34.1040764 L27.3359438,78.1147127 C27.4833334,81.6520627 30.453619,84.5 34.0000255,84.5 L65.9999745,84.5 C69.5442642,84.5 72.5164778,81.6565944 72.6640562,78.1147127 L74.4978327,34.1040764 C74.5553125,32.7245615 73.4835913,31.5596471 72.1040764,31.5021673 C70.7245615,31.4446875 69.5596471,32.5164087 69.5021673,33.8959236 Z"/><path d="M48,38 L48,72 C48,73.1045695 48.8954305,74 50,74 C51.1045695,74 52,73.1045695 52,72 L52,38 C52,36.8954305 51.1045695,36 50,36 C48.8954305,36 48,36.8954305 48,38 Z"/><path d="M37.0008645,38.0587981 L38.0008645,72.0587981 C38.0333378,73.1628902 38.954706,74.0316088 40.0587981,73.9991355 C41.1628902,73.9666622 42.0316088,73.045294 41.9991355,71.9412019 L40.9991355,37.9412019 C40.9666622,36.8371098 40.045294,35.9683912 38.9412019,36.0008645 C37.8371098,36.0333378 36.9683912,36.954706 37.0008645,38.0587981 Z"/><path d="M59.0008645,37.9412019 L58.0008645,71.9412019 C57.9683912,73.045294 58.8371098,73.9666622 59.9412019,73.9991355 C61.045294,74.0316088 61.9666622,73.1628902 61.9991355,72.0587981 L62.9991355,38.0587981 C63.0316088,36.954706 62.1628902,36.0333378 61.0587981,36.0008645 C59.954706,35.9683912 59.0333378,36.8371098 59.0008645,37.9412019 Z"/><path d="M25,28 L75,28 C76.3807119,28 77.5,26.8807119 77.5,25.5 C77.5,24.1192881 76.3807119,23 75,23 L25,23 C23.6192881,23 22.5,24.1192881 22.5,25.5 C22.5,26.8807119 23.6192881,28 25,28 Z"/><path d="M42.4038099,24.6868028 L43.4448153,21.0432839 C43.6677785,20.2629127 44.6793677,19.5 45.4914967,19.5 L54.5085033,19.5 C55.3211505,19.5 56.3320347,20.2622589 56.5551847,21.0432839 L57.5961901,24.6868028 L62.4038099,23.3131972 L61.3628045,19.6696783 C60.5262772,16.741833 57.5532275,14.5 54.5085033,14.5 L45.4914967,14.5 C42.4471337,14.5 39.4734928,16.742638 38.6371955,19.6696783 L37.5961901,23.3131972 L42.4038099,24.6868028 Z"/></g></g><text x="0" y="115" fill="#000000" font-size="5px" font-weight="bold" font-family="'Helvetica Neue', Helvetica, Arial-Unicode, Arial, Sans-serif">Created by Landan Lloyd</text><text x="0" y="120" fill="#000000" font-size="5px" font-weight="bold" font-family="'Helvetica Neue', Helvetica, Arial-Unicode, Arial, Sans-serif">from the Noun Project</text></svg>